<?xml version="1.0" encoding="UTF-8" standalone="no"?>
<!-- Created with Inkscape (http://www.inkscape.org/) -->

<svg
   width="1101.2004"
   height="266.74609"
   viewBox="0 0 1101.2004 266.74609"
   version="1.1"
   id="svg5"
   inkscape:version="1.2 (dc2aedaf03, 2022-05-15)"
   sodipodi:docname="drawing.svg"
   xmlns:inkscape="http://www.inkscape.org/namespaces/inkscape"
   xmlns:sodipodi="http://sodipodi.sourceforge.net/DTD/sodipodi-0.dtd"
   xmlns="http://www.w3.org/2000/svg"
   xmlns:svg="http://www.w3.org/2000/svg">
  <sodipodi:namedview
     id="namedview7"
     pagecolor="#505050"
     bordercolor="#ffffff"
     borderopacity="1"
     inkscape:showpageshadow="0"
     inkscape:pageopacity="0"
     inkscape:pagecheckerboard="1"
     inkscape:deskcolor="#505050"
     inkscape:document-units="px"
     showgrid="false"
     inkscape:zoom="0.66126662"
     inkscape:cx="895.2516"
     inkscape:cy="527.77502"
     inkscape:window-width="2048"
     inkscape:window-height="1083"
     inkscape:window-x="0"
     inkscape:window-y="0"
     inkscape:window-maximized="1"
     inkscape:current-layer="layer2" />
  <defs
     id="defs2" />
  <g
     inkscape:label="Layer 1"
     inkscape:groupmode="layer"
     id="layer1"
     style="display:none"
     transform="translate(-395.51752,-274.41754)">
    <rect
       style="fill:#ffffff"
       id="rect2156"
       width="1413.5101"
       height="400.2478"
       x="-65.446358"
       y="448.02063" />
    <path
       id="path1465-5"
       style="fill:#b3b3b3;stroke-width:0.205467"
       d="m 398.60399,531.4945 a 30.478559,17.425105 0 0 0 -30.47849,-17.42533 30.478559,17.425105 0 0 0 -28.25889,10.9264 58.514558,8.5408989 0 0 0 -37.87423,-2.042 58.514558,8.5408989 0 0 0 -58.51458,8.54093 58.514558,8.5408989 0 0 0 58.51458,8.54093 58.514558,8.5408989 0 0 0 37.88056,-2.03143 30.478559,17.425105 0 0 0 28.25256,10.91544 30.478559,17.425105 0 0 0 30.47849,-17.42494 z" />
    <text
       xml:space="preserve"
       style="font-size:61.392px;fill:#b3b3b3;stroke-width:0.319749"
       x="240.19441"
       y="409.1936"
       id="text1681-4-3"><tspan
         sodipodi:role="line"
         x="240.19441"
         y="409.1936"
         id="tspan1683-5-0"
         style="font-size:61.392px;stroke-width:0.319749" /><tspan
         sodipodi:role="line"
         x="240.19441"
         y="485.93359"
         id="tspan1689-2-7"
         style="font-size:61.392px;stroke-width:0.319749">that's</tspan></text>
  </g>
  <g
     inkscape:groupmode="layer"
     id="layer2"
     inkscape:label="Layer 2"
     transform="translate(-395.51752,-274.41754)">
    <g
       id="g2432"
       inkscape:export-filename="thatscooked/g2432.png"
       inkscape:export-xdpi="92.029999"
       inkscape:export-ydpi="92.029999">
      <path
         id="path1465"
         style="fill:#000000;stroke-width:0.353308"
         d="m 425.48114,274.41755 c -16.54837,-4e-4 -29.9636,23.46407 -29.96362,52.40911 0.0123,31.62371 18.78839,40.19859 18.78839,48.59236 -2.26117,18.16714 -3.50572,41.25099 -3.51126,65.12628 0,55.57009 6.57537,100.61852 14.68649,100.61834 8.11111,1.5e-4 14.68648,-45.04827 14.68647,-100.61834 -9e-5,-23.86332 -1.23815,-46.94965 -3.49312,-65.13716 0,-5.91641 18.76951,-14.5573 18.76951,-48.58148 -2e-5,-28.94453 -13.41479,-52.40878 -29.96286,-52.40911 z"
         sodipodi:nodetypes="ccccccccc" />
      <text
         xml:space="preserve"
         style="font-size:274.592px;fill:#000000;stroke-width:1.43017"
         x="479.62906"
         y="193.4702"
         id="text1681"><tspan
           sodipodi:role="line"
           x="479.62906"
           y="193.4702"
           id="tspan1683"
           style="font-size:274.592px;fill:#000000;stroke-width:1.43017" /><tspan
           sodipodi:role="line"
           x="479.62906"
           y="539.24152"
           id="tspan1689"
           style="font-style:normal;font-variant:normal;font-weight:600;font-stretch:normal;font-size:274.592px;font-family:Montserrat;-inkscape-font-specification:'Montserrat, Semi-Bold';font-variant-ligatures:normal;font-variant-caps:normal;font-variant-numeric:normal;font-variant-east-asian:normal;fill:#000000;stroke-width:1.43017">cooked</tspan></text>
      <text
         xml:space="preserve"
         style="font-size:101.236px;fill:#000000;stroke-width:0.52727"
         x="488.03885"
         y="236.05643"
         id="text1681-4"><tspan
           sodipodi:role="line"
           x="488.03885"
           y="236.05643"
           id="tspan1683-5"
           style="font-size:101.236px;fill:#000000;stroke-width:0.52727" /><tspan
           sodipodi:role="line"
           x="488.03885"
           y="363.53467"
           id="tspan1689-2"
           style="font-style:normal;font-variant:normal;font-weight:300;font-stretch:normal;font-size:101.236px;font-family:Montserrat;-inkscape-font-specification:'Montserrat,  weight=275';font-variant-ligatures:normal;font-variant-caps:normal;font-variant-numeric:normal;font-variant-east-asian:normal;fill:#000000;stroke-width:0.52727">that's...</tspan></text>
    </g>
  </g>
</svg>
