<?xml version="1.0" standalone="no"?>
<!DOCTYPE svg PUBLIC "-//W3C//DTD SVG 20010904//EN"
 "http://www.w3.org/TR/2001/REC-SVG-20010904/DTD/svg10.dtd">
<svg version="1.0" xmlns="http://www.w3.org/2000/svg"
 width="352.000000pt" height="352.000000pt" viewBox="0 0 352.000000 352.000000"
 preserveAspectRatio="xMidYMid meet">
<metadata>
Created by potrace 1.14, written by Peter Selinger 2001-2017
</metadata>
<g transform="translate(0.000000,352.000000) scale(0.100000,-0.100000)"
fill="#000000" stroke="none">
<path d="M1637 3505 c-264 -72 -447 -335 -464 -665 -10 -210 58 -382 211 -536
71 -71 117 -125 112 -132 -2 -4 -7 -34 -10 -67 -4 -33 -9 -67 -11 -75 -3 -13
-10 -77 -20 -190 -23 -249 -23 -803 0 -1005 2 -16 6 -59 10 -95 3 -36 8 -76
10 -90 2 -14 7 -45 10 -70 13 -102 48 -265 75 -350 63 -191 145 -262 253 -216
53 22 78 51 117 134 32 71 76 238 95 362 2 19 7 46 9 60 2 14 7 52 11 85 4 33
8 74 10 90 26 200 35 595 21 905 -6 140 -10 194 -21 285 -2 17 -9 78 -16 137
l-13 106 85 84 c96 94 124 129 164 208 70 139 91 305 59 484 -46 263 -211 476
-423 542 -63 20 -214 25 -274 9z"/>
</g>
</svg>
